<?xml version="1.0" encoding="UTF-8"?>
<svg id="_图层_1" data-name="图层 1" xmlns="http://www.w3.org/2000/svg" version="1.1" viewBox="0 0 141 141">
  <defs>
    <style>
      .cls-1 {
        fill: #000;
      }

      .cls-1, .cls-2 {
        stroke-width: 0px;
      }

      .cls-2 {
        fill: #0a0a0a;
        fill-rule: evenodd;
      }
    </style>
  </defs>
  <path class="cls-2" d="M141.2-.31v61.95h-17.28V16.97H17.3v44.67H.02V-.31h141.18ZM141.2,78.92v61.95H.02v-61.95h17.28v44.67h106.61v-44.67h17.28Z"/>
  <path class="cls-1" d="M64.71,48.64h-3.11l-32.18,31.2v5.16l35.28-36.36ZM92.25,70.14v-1.32c-26.07,25.3-16.38,15.9-43.95,42.64h3.87c23.93-24.67,15.96-16.46,40.08-41.31ZM92.25,90.1v-1.33c-14.39,13.97-23.38,22.68-23.38,22.68h2.68c12.84-13.25,8.17-8.43,20.7-21.35ZM92.25,80.12v-1.33l-33.65,32.66h3.27c18.26-18.84,12.12-12.5,30.38-31.33ZM84.08,48.64h-1.88l-51.9,50.33-.86.84v5.15c38.05-39.22,54.64-56.32,54.64-56.32ZM92.25,50.18v-1.33l-5.51,5.36c-33,32-19.44,18.84-57.31,55.58v1.66h3.39l59.43-61.27ZM92.25,60.15v-1.31s-18.15,17.59-54.25,52.63h4.51l49.74-51.32ZM89.45,111.45h1.46l1.34-1.38v-1.34l-2.8,2.72ZM45.35,48.64h-4.31l-11.61,11.24v5.15l15.91-16.4ZM79.17,111.45h2.05c7.84-8.07,11.03-11.38,11.03-11.38v-1.33c-5.55,5.41-9.53,9.26-13.08,12.71ZM35.67,48.64h-4.91l-1.32,1.26v5.15l6.23-6.41ZM74.39,48.64h-2.49l-42.47,41.2v5.15l44.96-46.35ZM55.03,48.64h-3.71l-21.89,21.22v5.15l25.6-26.37ZM91.44,29.1h-7.19l-35.27,36.39v4.81l42.46-41.2ZM111.78,69.24v-8.65c-18.24,18.81-12.12,12.5-30.39,31.33h7.01s8.99-8.71,23.38-22.67ZM81.16,29.1h-6.59l-25.59,26.39v4.81l32.18-31.2ZM111.78,59.26v-8.65c-24.12,24.85-16.16,16.65-40.08,41.31h6.41c20.71-20.09,14.32-13.89,33.67-32.66ZM111.78,49.28v-8.66l-.07.07c-44.14,45.53-29.17,30.07-49.68,51.23h5.8c27.57-26.73,17.88-17.34,43.95-42.64ZM101.72,29.1h-7.8l-44.95,46.35v4.83c49.44-47.98,52.75-51.18,52.75-51.18ZM111.78,29.32v-.22h-8.18s-5.52,5.71-54.63,56.33v4.83c16.42-15.95,62.67-60.8,62.81-60.94ZM91.08,91.92h7.62c2.83-2.75,7.49-7.26,13.08-12.7v-8.65l-20.71,21.35ZM50.28,29.1h-1.3v1.28l1.3-1.28ZM70.86,29.1h-5.98l-15.9,16.41v4.83l21.88-21.24ZM110.44,91.92h1.34v-1.38l-1.34,1.38ZM100.75,91.92h8.23l2.8-2.71v-8.66s-3.19,3.28-11.03,11.37ZM111.78,39.32v-8.68s-40.79,42.06-59.43,61.27h5.19c36.81-35.71,54.25-52.6,54.25-52.6ZM60.57,29.1h-5.37l-6.22,6.43v4.83l11.59-11.26Z"/>
</svg>